<svg id="Layer_1" data-name="Layer 1" xmlns="http://www.w3.org/2000/svg" xmlns:xlink="http://www.w3.org/1999/xlink" viewBox="0 0 281.71 422.85"><defs><style>.cls-1{fill:#ef4823;}.cls-2{fill:#010101;stroke-width:10px;}.cls-2,.cls-3{stroke:#ef4823;stroke-miterlimit:10;}.cls-3{fill:none;stroke-width:7.22px;}</style></defs><path class="cls-1" d="M248.63,142.71H84.4a82.12,82.12,0,1,1,164.23,0Z" transform="translate(-25.66 -17.74)"/><path class="cls-2" d="M302.37,272.13a192.6,192.6,0,0,1-8.56,57.21c-19.27,62.05-69,106.25-127.3,106.25-58,0-107.52-43.74-127-105.32a192,192,0,0,1-8.86-58.14c0-32.46,7.86-62.69,21.42-88.13A165.8,165.8,0,0,1,65,163.56h203.1a164.9,164.9,0,0,1,14.58,23.75,187.58,187.58,0,0,1,19.71,83.07C302.37,271,302.37,271.54,302.37,272.13Z" transform="translate(-25.66 -17.74)"/><path class="cls-3" d="M201.85,68.56a146.09,146.09,0,0,1,39.57-34.77,143.28,143.28,0,0,1,27.63-12.63" transform="translate(-25.66 -17.74)"/><path class="cls-3" d="M64,21.16A143.08,143.08,0,0,1,91.62,33.79a146.38,146.38,0,0,1,39.57,34.76" transform="translate(-25.66 -17.74)"/><image width="512" height="482" transform="translate(39.44 202.48) scale(0.4)" xlink:href="../../PS%20Art/awsefafawsfawsfasfwasfassfasaasfsfa.png"/><path class="cls-1" d="M105.25,410.8l-.11,4,4.91-.67-1-2.81L106,414.41c22,8.81,46.1,8.6,69.39,8.31l8.67-.1a51.93,51.93,0,0,1,8.18.1,4.32,4.32,0,0,1,2.48,1c.12.14.11.14.2.43a2.24,2.24,0,0,1,.07.69c0,.14,0,.56-.05.25.05.32-.24.23,0,.09.36-.23-.2,0,0,0s-.84.1-.65.08c-1.45.21-2.9.36-4.35.51a154.09,154.09,0,0,1-35.27-.4,150.29,150.29,0,0,1-19.15-3.74q-4.89-1.29-9.68-2.89c-1.59-.53-3.16-1.19-4.76-1.68a7.81,7.81,0,0,0-2.31-.12,3.16,3.16,0,0,1-1.77-.68L115.72,421c21,2.48,42.06,5,63.23,4.65q9-.12,17.94-1l-1.77-4.26c-2.32,2.34-5.51,3.28-8.67,3.9a82.23,82.23,0,0,1-11.91,1.34,141.82,141.82,0,0,1-25.22-1.33c-4.7-.62-9.37-1.42-14-2.26l-.67,4.91,40.82.18v-5c-9.12.79-18.49,1.44-27.57-.1a45.71,45.71,0,0,1-12.62-3.88c-4.39-2.16-8.23-5.26-12.59-7.48-4.78-2.44-10.49-3.87-15.7-1.94a2.52,2.52,0,0,0-1.79,2.75,2.47,2.47,0,0,0,2.45,2.16l40.62-1.36v-5q-13.92.81-27.75,2.63a2.58,2.58,0,0,0-2.5,2.5,2.55,2.55,0,0,0,2.5,2.5,151.39,151.39,0,0,0,24.27-.93l-.67-4.91-15.61,4.53a2.54,2.54,0,0,0-1.75,3.07,2.58,2.58,0,0,0,3.08,1.75,119.86,119.86,0,0,0,17.46-3.86L146,409.71a134.24,134.24,0,0,0-13,5.13,2.49,2.49,0,0,0-1,3.12,2.53,2.53,0,0,0,2.95,1.45,228.48,228.48,0,0,0,22.59-5.74l-1.93-4.56L144,417.49a2.5,2.5,0,0,0,2.52,4.32A91.9,91.9,0,0,0,164.41,410l-3.93-3a69.83,69.83,0,0,1-10,10.82c-2.1,1.85.73,5.63,3,3.93a102,102,0,0,0,10.37-8.76l-3.92-3-5,7c-1.69,2.36,1.95,5,3.93,3L169.8,409.3l-3.93-3a43,43,0,0,1-7.74,10.61c-1.95,1.94.66,5.63,3,3.92q8.86-6.37,17.3-13.35L174.28,405a21,21,0,0,1-8.31,9.85l3,3.92a114.67,114.67,0,0,1,10.24-8.41,2.59,2.59,0,0,0,.9-3.43,2.55,2.55,0,0,0-3.42-.89,70.85,70.85,0,0,0-14.17,10.41c-1.74,1.64,0,5.07,2.43,4.18A143.75,143.75,0,0,0,185.65,411l-2.52-4.32q-6.76,5.18-14,9.67c-2.78,1.72-.36,5.66,2.52,4.32l18-8.4-3.42-3.42a26.76,26.76,0,0,1-9.45,9.69l2.53,4.32,15.76-11.13-3.68-2.83a13.64,13.64,0,0,1-4.67,6.69,2.58,2.58,0,0,0-.9,3.42,2.52,2.52,0,0,0,3.42.9l10.11-7.64-3-3.92a85.93,85.93,0,0,1-8.89,9.79l3.54,3.54A160.24,160.24,0,0,1,203.26,410l-4.17-2.44a14.19,14.19,0,0,1-6.25,9l3.67,2.82a16.31,16.31,0,0,1,6.35-9.21L199.09,408a22.36,22.36,0,0,1-5,11.52l3.93,3a50.63,50.63,0,0,1,7.71-9.68l-4.18-2.43a17.74,17.74,0,0,1-5.71,10.46l3.93,3A29.37,29.37,0,0,1,208,414l-3.67-2.82a14.3,14.3,0,0,1-5.35,9.34l3,3.92,7.37-6.87-3.93-3a51.78,51.78,0,0,1-8.08,9.46,2.51,2.51,0,0,0,0,3.53,2.54,2.54,0,0,0,3.53,0l13.33-11.15-4.27-1.77a7.12,7.12,0,0,1-2,4.92l3.53,3.54,6.2-7.11a2.59,2.59,0,0,0,.39-3,2.5,2.5,0,0,0-2.82-1.14,13.11,13.11,0,0,0-7,5.91,2.52,2.52,0,0,0,3.42,3.42l16-8.29c2.62-1.36.73-5.11-1.93-4.57a68.8,68.8,0,0,1-13.19,1.43c-2.24,0-4.49-.06-6.73-.24a5.14,5.14,0,0,0-3.15.27,3.84,3.84,0,0,0-1.78,2.14,3.67,3.67,0,0,0,2.14,4.73,3.82,3.82,0,0,0,4.69-2.56,3.62,3.62,0,0,0-.25-2.88c-.64-1.11-1.8-1.42-2.92-1.87-1.92-.77-3.82-1.61-5.7-2.49a126.23,126.23,0,0,1-12.89-7c-2.74-1.69-5.25,2.63-2.52,4.32a130.42,130.42,0,0,0,21.06,10.49L203,413.5a1.57,1.57,0,0,1,0-1.13q1-1.42,2.61.9c0,.2-1.09,1.76-1.27,1.08a19.63,19.63,0,0,0,3.36.27c2.08.12,4.17.14,6.26.08A77.63,77.63,0,0,0,227,413.13l-1.93-4.57-16,8.28,3.42,3.42a7.79,7.79,0,0,1,4-3.61l-2.43-4.18-6.19,7.1c-2.1,2.41,1.29,5.89,3.53,3.54a12.4,12.4,0,0,0,3.48-8.46c0-2.32-2.69-3.1-4.27-1.77L197.33,424l3.53,3.53a56.55,56.55,0,0,0,8.87-10.47c1.61-2.44-1.91-4.91-3.93-3L198.44,421c-2,1.89.72,5.65,3,3.92a19.14,19.14,0,0,0,7.64-12.32,2.55,2.55,0,0,0-.9-2.63,2.45,2.45,0,0,0-2.77-.19,34.73,34.73,0,0,0-10,11.69,2.51,2.51,0,0,0,3.93,3,22,22,0,0,0,7-12.66c.39-2.34-2.27-4.31-4.18-2.43A56.55,56.55,0,0,0,193.67,420c-1.45,2.37,2.07,5.24,3.93,3A28.43,28.43,0,0,0,204.09,408c.23-1.84-2.3-3.17-3.76-2.16a21.64,21.64,0,0,0-8.64,12.2,2.53,2.53,0,0,0,3.68,2.83,19.23,19.23,0,0,0,8.54-12,2.52,2.52,0,0,0-4.18-2.43,162.32,162.32,0,0,0-12.31,11.73,2.5,2.5,0,0,0,3.54,3.54,86.88,86.88,0,0,0,8.89-9.8,2.55,2.55,0,0,0,.19-3.28,2.45,2.45,0,0,0-3.22-.64l-10.11,7.63,2.52,4.32a19.45,19.45,0,0,0,7-9.68c.65-2-1.88-4.08-3.67-2.82l-15.76,11.13a2.58,2.58,0,0,0-.9,3.42,2.54,2.54,0,0,0,3.43.9,32,32,0,0,0,11.24-11.49c1.31-2.31-1.25-4.44-3.43-3.42l-18,8.4,2.52,4.32q7.23-4.5,14-9.67a2.59,2.59,0,0,0,.9-3.42,2.54,2.54,0,0,0-3.42-.9,136.37,136.37,0,0,1-19.47,9.13l2.43,4.17a65.7,65.7,0,0,1,13.15-9.62l-2.52-4.32a124.07,124.07,0,0,0-11.26,9.2c-2.08,1.92.62,5.44,3,3.93a26.7,26.7,0,0,0,10.61-12.84,2.49,2.49,0,0,0-1.15-2.82,2.61,2.61,0,0,0-3,.39q-7.92,6.57-16.29,12.58l3,3.92a47.33,47.33,0,0,0,8.53-11.62c1.29-2.48-1.84-5.06-3.93-3L155.34,416.4l3.92,3,5-7c1.69-2.36-2-4.95-3.93-3a91.38,91.38,0,0,1-9.37,8l3,3.93a76.28,76.28,0,0,0,10.8-11.84,2.47,2.47,0,0,0-.65-3.22,2.54,2.54,0,0,0-3.28.19A86.7,86.7,0,0,1,144,417.49l2.52,4.32,11.6-8.39a2.53,2.53,0,0,0,1-3.12,2.51,2.51,0,0,0-2.95-1.45,231.3,231.3,0,0,1-22.59,5.74l1.93,4.57a121.42,121.42,0,0,1,11.78-4.63c3-1,1.78-5.76-1.32-4.82a120,120,0,0,1-17.47,3.86l1.33,4.82,15.61-4.53a2.49,2.49,0,0,0,1.79-2.74,2.46,2.46,0,0,0-2.45-2.17,151.39,151.39,0,0,1-24.27.93v5q13.83-1.81,27.75-2.63c3.19-.19,3.24-5.11,0-5l-40.62,1.36.67,4.92c9.08-3.38,17.3,5.49,24.82,9.09,8.36,4,17.66,5.26,26.85,5.28,5.17,0,10.33-.35,15.48-.8,3.16-.28,3.27-5,0-5l-40.82-.18c-2.73,0-3.51,4.39-.66,4.91,17.47,3.17,35.57,5.61,53.23,2.36,4.21-.77,8.4-2.2,11.47-5.3,1.41-1.42.48-4.49-1.77-4.27-21.06,2.11-42.26.66-63.25-1.59-6-.64-11.95-1.34-17.92-2a2.51,2.51,0,0,0-2.41,1.84,2.57,2.57,0,0,0,1.15,2.82,8,8,0,0,0,6.17,1.14H119.3a156.34,156.34,0,0,0,72.44,8.85c2.67-.31,5.82-.2,7.41-2.76a6.57,6.57,0,0,0-.08-6.61c-1.5-2.48-4.5-3.33-7.21-3.58-2.87-.26-5.82-.07-8.7-.05-12.17.11-24.35.46-36.51-.2-13.41-.73-26.78-2.82-39.31-7.84-1.76-.7-3.65,1.39-3.08,3.08l1,2.81a2.52,2.52,0,0,0,4.92-.66l.11-4c.09-3.22-4.91-3.22-5,0Z" transform="translate(-25.66 -17.74)"/></svg>